<?xml version="1.0" encoding="UTF-8"?>
<svg id="Layer_1" height="59"  data-name="Layer 1" xmlns="http://www.w3.org/2000/svg" viewBox="0 0 2189.79 351.12">
  <defs>
    <style>
      .cls-1 {
        fill: #000;
        stroke-width: 0px;
      }
    </style>
  </defs>
  <g>
    <path class="cls-1" d="M203.38,131.77h-95.93v82.27c0,3.46-2.81,6.25-6.26,6.25h-35.45c-3.46,0-6.26-2.79-6.26-6.25V0h118.15c21.26,0,38.5,17.24,38.5,38.5h-108.67v54.78h57.45c21.25,0,38.48,17.24,38.48,38.5Z"/>
    <path class="cls-1" d="M47.97,223.57V71.33c0-5.73-4.64-10.37-10.37-10.37H10.37c-5.73,0-10.37,4.64-10.37,10.37v192.44h119.19v-34.62H53.55c-3.08,0-5.58-2.5-5.58-5.58Z"/>
    <path class="cls-1" d="M300.85,264.07c-5.62-8.29-13.47-14.56-23.54-18.81-1.82-.77-3.68-1.47-5.6-2.08,8.01-4.23,14.42-9.96,19.22-17.15,5.33-8,7.99-17.42,7.99-28.28,0-16.18-6.56-29.21-19.69-39.09-13.13-9.87-32.72-14.81-58.77-14.81h-101.27v84.98h47.67v-48.85h47.67c11.65,0,20.59,2.02,26.8,6.07,6.23,4.05,9.33,10.11,9.33,18.21s-3.1,14.47-9.33,18.5c-6.21,4.05-15.15,6.07-26.8,6.07h-47.67v34.94h55.97c12.43,0,21.86,2.12,28.28,6.37,6.4,4.24,9.62,10.71,9.62,19.39s-3.22,15.35-9.62,19.4c-6.42,4.05-15.85,6.06-28.28,6.06h-55.97v-51.22h-47.67v87.35h107.19c27.24,0,47.87-4.98,61.89-14.95,14.02-9.97,21.02-23.84,21.02-41.61,0-12.04-2.82-22.21-8.44-30.49Z"/>
  </g>
</svg>