<?xml version="1.0" encoding="UTF-8"?>
<svg id="Layer_1" height="59"  data-name="Layer 1" xmlns="http://www.w3.org/2000/svg" viewBox="0 0 2189.79 351.12">
  <defs>
    <style>
      .cls-1 {
        fill: #000;
        stroke-width: 0px;
      }
    </style>
  </defs>
  <g>
    <path class="cls-1" d="M203.38,131.77h-95.93v82.27c0,3.46-2.81,6.25-6.26,6.25h-35.45c-3.46,0-6.26-2.79-6.26-6.25V0h118.15c21.26,0,38.5,17.24,38.5,38.5h-108.67v54.78h57.45c21.25,0,38.48,17.24,38.48,38.5Z"/>
    <path class="cls-1" d="M47.97,223.57V71.33c0-5.73-4.64-10.37-10.37-10.37H10.37c-5.73,0-10.37,4.64-10.37,10.37v192.44h119.19v-34.62H53.55c-3.08,0-5.58-2.5-5.58-5.58Z"/>
    <path class="cls-1" d="M300.85,264.07c-5.62-8.29-13.47-14.56-23.54-18.81-1.82-.77-3.68-1.47-5.6-2.08,8.01-4.23,14.42-9.96,19.22-17.15,5.33-8,7.99-17.42,7.99-28.28,0-16.18-6.56-29.21-19.69-39.09-13.13-9.87-32.72-14.81-58.77-14.81h-101.27v84.98h47.67v-48.85h47.67c11.65,0,20.59,2.02,26.8,6.07,6.23,4.05,9.33,10.11,9.33,18.21s-3.1,14.47-9.33,18.5c-6.21,4.05-15.15,6.07-26.8,6.07h-47.67v34.94h55.97c12.43,0,21.86,2.12,28.28,6.37,6.4,4.24,9.62,10.71,9.62,19.39s-3.22,15.35-9.62,19.4c-6.42,4.05-15.85,6.06-28.28,6.06h-55.97v-51.22h-47.67v87.35h107.19c27.24,0,47.87-4.98,61.89-14.95,14.02-9.97,21.02-23.84,21.02-41.61,0-12.04-2.82-22.21-8.44-30.49Z"/>
  </g>
  <g>
    <path class="cls-1" d="M426.07,200.03v30.2h-31.17v-109.34h145.85v28.75h-114.67v24.55h113.71v25.84h-113.71Z"/>
    <path class="cls-1" d="M547.85,184.52v-17.93h52.49v17.93h-52.49Z"/>
    <path class="cls-1" d="M644.59,230.23c-11.74,0-20.32-2.91-25.76-8.72-5.44-5.81-8.16-14.75-8.16-26.81v-73.81h31.33v70.58c0,3.34.78,5.82,2.34,7.43,1.56,1.62,3.9,2.42,7.02,2.42h81.73v28.91h-88.51Z"/>
    <path class="cls-1" d="M776.55,230.23c-11.74,0-20.35-2.91-25.84-8.72-5.49-5.81-8.24-14.75-8.24-26.81v-38.28c0-12.06,2.74-21,8.24-26.81,5.49-5.81,14.11-8.72,25.84-8.72h77.69c11.74,0,20.35,2.91,25.84,8.72,5.49,5.82,8.24,14.75,8.24,26.81v38.28c0,12.06-2.74,21-8.24,26.81-5.49,5.82-14.11,8.72-25.84,8.72h-77.69ZM856.98,159.65c0-3.34-.81-5.84-2.42-7.51-1.61-1.67-3.98-2.5-7.1-2.5h-64.12c-3.12,0-5.46.83-7.02,2.5-1.56,1.67-2.34,4.17-2.34,7.51v31.82c0,3.34.78,5.82,2.34,7.43,1.56,1.62,3.9,2.42,7.02,2.42h64.12c3.12,0,5.49-.81,7.1-2.42,1.62-1.62,2.42-4.09,2.42-7.43v-31.82Z"/>
    <path class="cls-1" d="M1037.56,120.89v28.75h-94.97c-3.12,0-5.46.83-7.02,2.5-1.56,1.67-2.34,4.17-2.34,7.51v31.82c0,3.34.78,5.82,2.34,7.43,1.56,1.62,3.9,2.42,7.02,2.42h94.97v28.91h-101.76c-11.74,0-20.35-2.91-25.84-8.72-5.49-5.81-8.24-14.75-8.24-26.81v-38.28c0-12.06,2.74-21,8.24-26.81,5.49-5.81,14.11-8.72,25.84-8.72h101.76Z"/>
    <path class="cls-1" d="M1051.6,190.82c0-8.08,1.91-14.21,5.74-18.41,3.82-4.2,10.47-6.3,19.95-6.3h88.83v-6.46c0-3.34-.81-5.84-2.42-7.51-1.62-1.67-3.98-2.5-7.11-2.5h-102.24v-28.75h109.02c11.74,0,20.32,2.91,25.76,8.72,5.44,5.82,8.16,14.75,8.16,26.81v73.81h-120c-9.48,0-16.13-2.1-19.95-6.3-3.82-4.2-5.74-10.34-5.74-18.41v-14.7ZM1082.78,191.96v5.81c0,2.16.51,3.74,1.53,4.77s2.56,1.53,4.6,1.53h77.21v-18.41h-77.21c-2.04,0-3.58.51-4.6,1.53-1.02,1.02-1.53,2.61-1.53,4.77Z"/>
    <path class="cls-1" d="M1245.9,230.23c-11.74,0-20.32-2.91-25.76-8.72-5.44-5.81-8.16-14.75-8.16-26.81v-73.81h31.33v70.58c0,3.34.78,5.82,2.34,7.43,1.56,1.62,3.9,2.42,7.02,2.42h81.73v28.91h-88.51Z"/>
    <path class="cls-1" d="M1404.35,230.23v-109.34h119.19c9.48,0,16.15,2.1,20.03,6.3,3.88,4.2,5.81,10.34,5.81,18.41v7.43c0,4.42-.43,7.97-1.29,10.66s-1.96,4.79-3.31,6.3c-1.34,1.51-2.88,2.56-4.6,3.15-1.72.59-3.39,1-5.01,1.21,1.62.22,3.34.62,5.17,1.21,1.83.59,3.55,1.64,5.17,3.15,1.62,1.51,2.93,3.56,3.96,6.14,1.02,2.58,1.53,5.92,1.53,10.01v10.66c0,8.08-1.91,14.21-5.73,18.41-3.82,4.2-10.48,6.3-19.95,6.3h-120.97ZM1435.68,164.98h75.75c1.07,0,2.04-.11,2.91-.32.86-.22,1.56-.56,2.1-1.05.54-.49.97-1.13,1.29-1.94.32-.81.48-1.75.48-2.83v-5.65c0-2.15-.51-3.74-1.54-4.76s-2.56-1.54-4.6-1.54h-76.39v18.09ZM1435.68,185.49v18.57h78.01c2.04,0,3.58-.51,4.6-1.53,1.02-1.02,1.54-2.61,1.54-4.77v-6.3c0-1.07-.16-1.99-.49-2.74-.32-.75-.78-1.37-1.37-1.86-.59-.49-1.32-.84-2.18-1.05-.86-.22-1.78-.32-2.74-.32h-77.37Z"/>
    <path class="cls-1" d="M1684.09,230.23c-.86-.65-1.56-1.51-2.1-2.58s-.8-2.58-.8-4.52v-21.48c0-1.29-.16-2.36-.49-3.23-.32-.86-.81-1.56-1.45-2.1-.65-.54-1.43-.92-2.34-1.13-.92-.21-2.02-.32-3.31-.32h-76.56v35.37h-31.33v-109.34h119.19c9.48,0,16.15,2.1,20.03,6.3,3.88,4.2,5.81,10.34,5.81,18.41v14.53c0,4.52-.43,8.1-1.29,10.74s-1.96,4.68-3.31,6.14c-1.34,1.46-2.88,2.48-4.6,3.07-1.72.59-3.39,1.05-5.01,1.37,1.62.22,3.34.62,5.17,1.21,1.83.59,3.55,1.64,5.17,3.15,1.62,1.51,2.93,3.55,3.96,6.14,1.02,2.58,1.53,5.92,1.53,10.01v21.16c0,1.94.27,3.45.81,4.52.54,1.08,1.24,1.94,2.1,2.58h-31.17ZM1679.57,153.19c0-2.15-.51-3.74-1.54-4.76s-2.56-1.54-4.6-1.54h-76.39v24.55h75.75c1.07,0,2.04-.1,2.91-.32.86-.21,1.56-.59,2.1-1.13.54-.54.97-1.21,1.29-2.02.32-.81.48-1.75.48-2.83v-11.95Z"/>
    <path class="cls-1" d="M1724.79,190.82c0-8.08,1.91-14.21,5.74-18.41,3.82-4.2,10.47-6.3,19.95-6.3h88.83v-6.46c0-3.34-.81-5.84-2.42-7.51-1.62-1.67-3.98-2.5-7.11-2.5h-102.24v-28.75h109.02c11.74,0,20.32,2.91,25.76,8.72,5.44,5.82,8.16,14.75,8.16,26.81v73.81h-120c-9.48,0-16.13-2.1-19.95-6.3-3.82-4.2-5.74-10.34-5.74-18.41v-14.7ZM1755.97,191.96v5.81c0,2.16.51,3.74,1.53,4.77s2.56,1.53,4.6,1.53h77.21v-18.41h-77.21c-2.04,0-3.58.51-4.6,1.53-1.02,1.02-1.53,2.61-1.53,4.77Z"/>
    <path class="cls-1" d="M1997.42,230.23v-70.58c0-3.34-.78-5.84-2.34-7.51-1.56-1.67-3.9-2.5-7.03-2.5h-70.9v80.59h-31.33v-109.34h108.86c11.74,0,20.35,2.91,25.84,8.72,5.49,5.82,8.24,14.75,8.24,26.81v73.81h-31.33Z"/>
    <path class="cls-1" d="M2043.94,120.89h109.5c6.03,0,11.31.84,15.83,2.5,4.52,1.67,8.32,4.12,11.39,7.35,3.07,3.23,5.36,7.19,6.86,11.87,1.51,4.68,2.26,10.04,2.26,16.07v34.24c0,5.82-.75,11.04-2.26,15.67-1.51,4.63-3.74,8.56-6.7,11.79-2.96,3.23-6.73,5.68-11.31,7.35-4.58,1.67-9.93,2.5-16.07,2.5h-109.5v-109.34ZM2075.28,149.64v51.68h70.09c2.16,0,4.04-.22,5.66-.65,1.62-.43,2.99-1.1,4.12-2.02,1.13-.91,1.96-2.07,2.5-3.47.54-1.4.81-3.07.81-5.01v-27.46c0-2.04-.19-3.88-.56-5.49-.38-1.62-1.02-2.99-1.94-4.12-.92-1.13-2.07-1.99-3.47-2.58s-3.12-.89-5.17-.89h-72.03Z"/>
  </g>
</svg>